<svg width="600" height="402" viewBox="0 0 600 402" fill="none" xmlns="http://www.w3.org/2000/svg">
<g opacity="0.3">
<rect width="45.0107" height="45.0107" transform="matrix(1 -8.74228e-08 -8.74228e-08 -1 1.55182e-05 356.497)" fill="#D9D9D9"/>
<rect width="45.0107" height="45.0107" transform="matrix(1 -8.74228e-08 -8.74228e-08 -1 45.0108 356.497)" fill="#D9D9D9" fill-opacity="0.5"/>
<rect width="45.0107" height="45.0107" transform="matrix(1 -8.74228e-08 -8.74228e-08 -1 45.0108 311.486)" fill="#D9D9D9" fill-opacity="0.9"/>
<rect width="45.0107" height="45.0107" transform="matrix(1 -8.74228e-08 -8.74228e-08 -1 90.0216 356.497)" fill="#D9D9D9" fill-opacity="0.9"/>
<rect width="45.0107" height="45.0107" transform="matrix(1 -8.74228e-08 -8.74228e-08 -1 135.032 356.497)" fill="#D9D9D9" fill-opacity="0.5"/>
<rect width="45.0107" height="45.0107" transform="matrix(1 -8.74228e-08 -8.74228e-08 -1 135.032 401.507)" fill="#D9D9D9" fill-opacity="0.9"/>
<rect width="45.0107" height="45.0107" transform="matrix(1 -8.74228e-08 -8.74228e-08 -1 1.55182e-05 269.011)" fill="#D9D9D9" fill-opacity="0.9"/>
</g>
<g opacity="0.3">
<rect width="45" height="45" transform="matrix(-1 0 0 1 600 45)" fill="#D9D9D9"/>
<rect width="45" height="45" transform="matrix(-1 0 0 1 555 45)" fill="#D9D9D9" fill-opacity="0.5"/>
<rect width="45" height="45" transform="matrix(-1 0 0 1 555 90)" fill="#D9D9D9" fill-opacity="0.9"/>
<rect width="45" height="45" transform="matrix(-1 0 0 1 510 45)" fill="#D9D9D9" fill-opacity="0.9"/>
<rect width="45" height="45" transform="matrix(-1 0 0 1 465 45)" fill="#D9D9D9" fill-opacity="0.5"/>
<rect width="45" height="45" transform="matrix(-1 0 0 1 465 0)" fill="#D9D9D9" fill-opacity="0.9"/>
<rect width="45" height="45" transform="matrix(-1 0 0 1 600 132.465)" fill="#D9D9D9" fill-opacity="0.9"/>
</g>
</svg>
