<svg width="19" height="22" viewBox="0 0 19 22" fill="none" xmlns="http://www.w3.org/2000/svg">
<path d="M1.14514 4.86328L3.0247 20.2009C3.13419 21.1042 3.90062 21.7793 4.80846 21.7793H14.1333C15.0411 21.7793 15.8076 21.1042 15.917 20.2009L17.7966 4.86328H1.14514ZM6.30481 19.325C6.30481 19.325 6.27744 19.325 6.25919 19.325C5.98547 19.325 5.75281 19.1151 5.73 18.8368L4.8404 7.88792C4.81759 7.59595 5.03656 7.34047 5.32854 7.31766C5.62051 7.29485 5.87598 7.51383 5.89879 7.8058L6.78839 18.7547C6.8112 19.0467 6.59222 19.3022 6.30025 19.325H6.30481ZM10.0001 18.7958C10.0001 19.0877 9.76284 19.325 9.47087 19.325C9.1789 19.325 8.94168 19.0877 8.94168 18.7958V7.84686C8.94168 7.55489 9.1789 7.31766 9.47087 7.31766C9.76284 7.31766 10.0001 7.55489 10.0001 7.84686V18.7958ZM14.0922 7.88792L13.2026 18.8368C13.1798 19.1151 12.9472 19.325 12.6734 19.325C12.6597 19.325 12.6461 19.325 12.6278 19.325C12.3358 19.3022 12.1169 19.0467 12.1397 18.7547L13.0293 7.8058C13.0521 7.51383 13.3076 7.29485 13.5995 7.31766C13.8915 7.34047 14.1105 7.59595 14.0877 7.88792H14.0922Z" fill="white"/>
<path d="M18.4991 2.3677H13.6679C13.4489 2.3677 13.2573 2.23084 13.1843 2.02555L12.8057 0.935219C12.6095 0.37865 12.0849 0 11.4918 0H7.44982C6.85675 0 6.33212 0.374088 6.13595 0.935219L5.7573 2.02555C5.68431 2.23084 5.4927 2.3677 5.27372 2.3677H0.442518C0.196168 2.3677 0 2.56387 0 2.81022V3.66332C0 3.90967 0.196168 4.10584 0.442518 4.10584H18.4991C18.7454 4.10584 18.9416 3.90967 18.9416 3.66332V2.81022C18.9416 2.56387 18.7454 2.3677 18.4991 2.3677ZM7.31296 1.35037C7.34489 1.26369 7.42701 1.20438 7.51825 1.20438H11.4234C11.5146 1.20438 11.6013 1.26369 11.6286 1.35037L11.9845 2.3677H6.95712L7.31296 1.35037Z" fill="white"/>
</svg>
