<svg xmlns="http://www.w3.org/2000/svg" viewBox="0 0 333 341">
  <path d="M 150 50 L 112 66 L 84 97 L 77 126 L 81 127 L 89 147 L 81 162 L 76 181 L 67 193 L 72 195 L 72 200 L 67 207 L 39 224 L 46 224 L 47 229 L 24 248 L 112 294 L 179 316 L 198 329 L 205 326 L 207 331 L 223 312 L 225 303 L 231 300 L 230 281 L 240 280 L 234 275 L 230 264 L 230 248 L 235 247 L 239 256 L 238 244 L 243 243 L 245 248 L 242 227 L 235 217 L 235 212 L 239 210 L 232 201 L 230 181 L 276 169 L 294 152 L 303 114 L 245 95 L 234 72 L 212 57 L 189 50 Z" fill="#ffffff"/>
</svg>