<svg xmlns="http://www.w3.org/2000/svg" viewBox="235 313 979 344" width="979" height="344">
  
  <path d="M 518 615 L 519 617 L 520 620 L 522 626 L 523 630 L 524 636 L 524 649 L 523 653 L 522 654 L 521 657 L 524 654 L 526 651 L 527 649 L 528 646 L 529 642 L 529 632 L 528 629 L 527 627 L 525 624 L 523 621 L 520 618 L 520 617 Z M 518 572 L 519 575 L 522 580 L 524 585 L 523 588 L 520 583 L 516 578 L 515 576 L 516 578 L 517 579 L 517 581 L 521 589 L 524 597 L 525 600 L 526 606 L 524 608 L 523 606 L 524 608 L 525 611 L 527 621 L 528 624 L 532 631 L 534 633 L 536 636 L 536 632 L 536 624 L 538 625 L 540 627 L 543 627 L 539 624 L 537 621 L 536 619 L 535 616 L 534 613 L 534 601 L 533 598 L 531 593 L 528 587 L 525 582 L 521 577 L 519 574 Z M 1135 493 L 1130 494 L 1128 495 L 1126 496 L 1123 498 L 1116 505 L 1116 497 L 1116 494 L 1109 494 L 1105 496 L 1104 504 L 1104 511 L 1103 518 L 1102 525 L 1100 532 L 1100 538 L 1111 537 L 1112 529 L 1112 522 L 1113 515 L 1114 513 L 1124 503 L 1126 502 L 1128 501 L 1131 501 L 1133 503 L 1134 506 L 1133 513 L 1130 528 L 1130 537 L 1132 539 L 1140 539 L 1144 537 L 1144 534 L 1141 533 L 1140 531 L 1140 529 L 1141 523 L 1143 516 L 1144 509 L 1144 497 L 1141 494 L 1138 494 L 1137 493 Z M 1076 493 L 1071 494 L 1068 495 L 1066 496 L 1063 498 L 1060 501 L 1058 504 L 1057 506 L 1056 508 L 1055 511 L 1054 514 L 1053 519 L 1053 532 L 1054 535 L 1057 538 L 1059 539 L 1067 539 L 1070 538 L 1073 536 L 1081 528 L 1082 531 L 1081 532 L 1081 535 L 1082 536 L 1082 538 L 1084 539 L 1090 539 L 1093 538 L 1095 537 L 1095 534 L 1092 533 L 1092 524 L 1096 504 L 1096 494 L 1087 493 Z M 1078 498 L 1084 499 L 1086 501 L 1086 503 L 1085 509 L 1084 514 L 1083 517 L 1082 519 L 1080 522 L 1078 525 L 1073 530 L 1070 532 L 1066 532 L 1064 530 L 1064 518 L 1065 513 L 1066 510 L 1067 507 L 1068 505 L 1069 503 L 1072 500 L 1074 499 Z M 913 493 L 908 494 L 906 495 L 904 496 L 901 499 L 900 501 L 899 504 L 899 508 L 900 511 L 902 514 L 906 517 L 915 521 L 919 525 L 919 529 L 918 531 L 916 533 L 914 534 L 905 534 L 897 531 L 896 533 L 896 537 L 898 538 L 902 539 L 917 539 L 921 538 L 925 536 L 927 534 L 928 532 L 929 530 L 929 521 L 928 519 L 924 515 L 920 513 L 913 510 L 910 507 L 910 502 L 913 499 L 915 498 L 922 498 L 929 500 L 931 495 L 929 494 L 923 493 Z M 871 493 L 867 494 L 861 497 L 856 502 L 853 508 L 852 511 L 851 517 L 851 524 L 852 528 L 853 531 L 855 534 L 857 536 L 863 539 L 877 539 L 880 538 L 882 537 L 884 536 L 889 531 L 892 525 L 893 521 L 894 515 L 894 508 L 893 504 L 892 502 L 891 500 L 887 496 L 885 495 L 883 494 L 879 493 Z M 873 499 L 876 499 L 878 499 L 882 503 L 883 506 L 883 516 L 882 521 L 881 525 L 880 528 L 878 531 L 876 533 L 874 534 L 867 534 L 864 531 L 863 529 L 862 526 L 862 519 L 863 512 L 864 508 L 865 505 L 867 503 L 867 502 L 868 501 L 869 501 L 871 499 Z M 807 493 L 804 494 L 801 495 L 798 497 L 795 499 L 790 504 L 789 494 L 782 494 L 781 495 L 779 495 L 779 497 L 778 498 L 777 505 L 774 528 L 773 535 L 773 538 L 784 538 L 784 532 L 785 525 L 786 518 L 787 514 L 789 511 L 797 503 L 799 502 L 802 501 L 804 501 L 807 504 L 807 509 L 805 516 L 805 523 L 803 529 L 803 536 L 804 538 L 806 539 L 813 539 L 817 537 L 817 534 L 814 533 L 814 525 L 815 518 L 818 504 L 818 499 L 816 495 L 814 494 L 812 493 Z M 733 493 L 729 494 L 726 495 L 723 497 L 719 501 L 718 503 L 717 505 L 716 508 L 715 512 L 714 516 L 714 529 L 715 532 L 716 534 L 720 538 L 723 539 L 736 539 L 742 537 L 744 535 L 744 530 L 741 531 L 738 533 L 729 533 L 726 530 L 725 528 L 725 519 L 726 512 L 727 507 L 728 505 L 729 503 L 733 499 L 736 499 L 737 498 L 739 498 L 746 500 L 749 499 L 749 495 L 747 494 L 743 493 Z M 833 482 L 832 485 L 832 490 L 830 494 L 824 494 L 824 497 L 823 499 L 830 500 L 830 504 L 829 511 L 825 530 L 825 535 L 826 537 L 827 538 L 829 539 L 839 539 L 842 538 L 846 536 L 846 532 L 838 533 L 836 531 L 836 527 L 837 526 L 839 514 L 840 507 L 840 501 L 842 499 L 851 499 L 851 496 L 852 494 L 842 493 L 842 487 L 843 486 L 843 480 Z M 1204 473 L 1203 475 L 1202 480 L 1201 487 L 1200 494 L 1196 529 L 1195 530 L 1195 535 L 1196 537 L 1198 539 L 1206 539 L 1210 537 L 1210 534 L 1208 534 L 1206 532 L 1206 526 L 1207 525 L 1208 510 L 1209 503 L 1210 496 L 1213 483 L 1214 474 L 1214 471 Z M 1168 471 L 1160 472 L 1158 473 L 1157 475 L 1156 482 L 1156 489 L 1151 524 L 1149 531 L 1149 538 L 1159 538 L 1159 536 L 1160 535 L 1160 528 L 1161 523 L 1164 520 L 1168 518 L 1170 520 L 1172 524 L 1177 535 L 1178 537 L 1190 538 L 1189 536 L 1187 532 L 1181 520 L 1179 518 L 1178 515 L 1176 511 L 1184 503 L 1185 503 L 1194 494 L 1184 494 L 1165 513 L 1162 513 L 1163 505 L 1166 491 L 1167 484 L 1167 477 L 1168 476 Z M 1010 472 L 1009 477 L 1008 484 L 1006 498 L 1005 512 L 1004 519 L 1002 526 L 1002 532 L 1001 533 L 1001 538 L 1031 538 L 1036 537 L 1038 536 L 1040 535 L 1043 533 L 1045 531 L 1047 528 L 1048 525 L 1049 522 L 1049 515 L 1048 512 L 1047 510 L 1043 506 L 1041 505 L 1039 505 L 1037 503 L 1043 501 L 1046 499 L 1048 497 L 1050 494 L 1051 491 L 1052 485 L 1051 480 L 1050 478 L 1048 476 L 1048 475 L 1047 474 L 1045 473 L 1043 472 L 1040 471 Z M 1017 507 L 1029 507 L 1031 508 L 1033 509 L 1036 512 L 1037 514 L 1037 523 L 1036 525 L 1032 529 L 1030 530 L 1028 531 L 1023 532 L 1015 532 L 1013 530 L 1013 528 L 1014 521 L 1015 513 Z M 1022 477 L 1031 477 L 1035 478 L 1039 482 L 1040 484 L 1040 490 L 1039 493 L 1037 495 L 1037 496 L 1036 497 L 1035 497 L 1033 499 L 1031 500 L 1018 499 L 1018 492 L 1019 485 L 1020 479 Z M 953 471 L 943 473 L 942 476 L 941 483 L 941 490 L 940 497 L 938 504 L 937 511 L 935 526 L 934 534 L 934 538 L 945 538 L 945 532 L 946 531 L 946 524 L 947 517 L 948 514 L 950 511 L 958 503 L 960 502 L 962 501 L 965 501 L 967 503 L 968 506 L 967 514 L 964 528 L 964 536 L 965 538 L 967 539 L 974 539 L 978 537 L 978 534 L 975 533 L 974 530 L 975 523 L 978 505 L 979 504 L 979 500 L 978 497 L 975 494 L 972 493 L 968 493 L 964 494 L 962 495 L 960 496 L 957 498 L 950 505 L 949 502 L 950 494 L 952 486 L 952 479 L 953 478 Z M 762 472 L 761 479 L 759 492 L 759 499 L 758 506 L 755 526 L 753 532 L 753 538 L 764 538 L 764 536 L 765 535 L 766 528 L 766 521 L 767 514 L 770 494 L 773 481 L 774 474 L 774 471 Z M 648 472 L 647 478 L 646 489 L 643 500 L 642 511 L 639 522 L 638 533 L 637 534 L 637 538 L 645 538 L 645 535 L 646 534 L 647 528 L 649 508 L 652 495 L 652 489 L 654 487 L 655 491 L 656 495 L 658 499 L 662 518 L 664 522 L 665 529 L 666 531 L 676 530 L 677 528 L 679 523 L 686 512 L 692 499 L 699 487 L 700 496 L 697 512 L 696 520 L 695 529 L 695 538 L 706 538 L 706 534 L 707 533 L 707 523 L 709 513 L 711 492 L 712 480 L 712 471 L 700 471 L 698 473 L 696 477 L 688 494 L 681 505 L 676 516 L 674 518 L 673 514 L 671 509 L 669 497 L 666 485 L 663 474 L 662 473 L 662 471 Z M 418 313 L 407 314 L 400 315 L 394 316 L 385 318 L 381 319 L 369 323 L 364 325 L 350 332 L 342 337 L 339 339 L 333 344 L 324 349 L 320 352 L 323 356 L 322 356 L 316 360 L 308 368 L 308 369 L 306 371 L 309 372 L 305 376 L 302 378 L 294 382 L 291 383 L 288 383 L 290 384 L 298 385 L 295 388 L 288 393 L 282 399 L 286 399 L 287 398 L 290 400 L 288 402 L 283 412 L 282 415 L 281 419 L 280 424 L 280 440 L 283 437 L 285 441 L 288 453 L 288 465 L 290 464 L 292 462 L 296 462 L 295 465 L 288 478 L 286 483 L 285 488 L 283 493 L 280 499 L 276 503 L 278 503 L 279 502 L 282 501 L 283 504 L 282 505 L 282 508 L 278 516 L 276 519 L 269 526 L 272 526 L 273 525 L 276 526 L 272 530 L 268 533 L 262 536 L 264 537 L 273 538 L 270 541 L 265 545 L 262 547 L 259 549 L 255 551 L 263 552 L 260 557 L 256 562 L 249 569 L 241 576 L 237 579 L 235 580 L 238 580 L 239 579 L 242 579 L 245 578 L 248 577 L 260 571 L 263 569 L 266 566 L 267 566 L 269 564 L 267 565 L 262 568 L 260 568 L 257 568 L 265 560 L 268 556 L 270 552 L 273 549 L 271 550 L 270 551 L 267 550 L 281 536 L 284 532 L 286 529 L 288 526 L 290 521 L 291 519 L 283 527 L 282 527 L 279 530 L 278 528 L 281 525 L 283 521 L 287 513 L 289 503 L 290 500 L 291 498 L 289 502 L 286 502 L 287 499 L 290 494 L 292 488 L 293 485 L 290 488 L 289 485 L 292 478 L 293 476 L 296 472 L 296 470 L 298 468 L 300 463 L 301 456 L 303 458 L 305 463 L 306 465 L 305 463 L 305 460 L 304 458 L 303 456 L 298 452 L 295 455 L 295 456 L 293 458 L 292 449 L 291 444 L 290 443 L 290 439 L 289 438 L 289 436 L 289 438 L 287 440 L 286 420 L 287 415 L 288 412 L 292 404 L 294 401 L 296 398 L 299 395 L 299 394 L 301 392 L 299 393 L 297 391 L 302 387 L 306 384 L 307 384 L 309 382 L 307 381 L 310 378 L 315 375 L 320 371 L 324 367 L 326 366 L 324 367 L 322 368 L 319 368 L 316 368 L 323 361 L 326 359 L 329 357 L 341 352 L 331 349 L 333 348 L 334 348 L 341 344 L 351 337 L 360 332 L 362 331 L 369 328 L 374 326 L 377 325 L 380 324 L 396 320 L 402 319 L 409 318 L 423 317 L 437 317 L 451 318 L 459 319 L 468 320 L 473 321 L 485 324 L 488 325 L 491 326 L 505 333 L 508 335 L 511 337 L 515 340 L 528 353 L 530 357 L 535 362 L 536 362 L 538 366 L 538 374 L 539 378 L 540 381 L 542 384 L 545 387 L 553 391 L 562 394 L 566 395 L 578 397 L 590 400 L 597 402 L 612 408 L 616 408 L 620 409 L 623 410 L 626 411 L 630 413 L 632 414 L 633 415 L 634 417 L 635 419 L 635 427 L 634 432 L 633 436 L 632 440 L 631 443 L 630 445 L 629 447 L 626 449 L 626 456 L 625 460 L 624 463 L 621 469 L 616 477 L 615 478 L 613 479 L 610 479 L 607 482 L 606 485 L 598 493 L 595 495 L 591 497 L 585 500 L 582 501 L 579 502 L 575 503 L 568 504 L 558 505 L 549 505 L 540 506 L 534 507 L 528 508 L 523 509 L 519 511 L 519 518 L 520 526 L 518 524 L 519 527 L 523 534 L 525 537 L 527 542 L 525 541 L 523 540 L 520 538 L 514 532 L 515 535 L 516 537 L 517 539 L 521 544 L 523 549 L 528 559 L 525 556 L 521 553 L 520 553 L 518 551 L 520 554 L 522 557 L 525 562 L 529 569 L 530 573 L 534 579 L 537 585 L 540 592 L 543 601 L 543 605 L 543 601 L 544 600 L 544 589 L 543 583 L 542 579 L 541 576 L 536 566 L 538 565 L 540 566 L 542 567 L 541 565 L 539 562 L 533 553 L 529 549 L 541 548 L 542 547 L 544 546 L 542 546 L 539 544 L 531 536 L 527 528 L 526 524 L 527 513 L 531 512 L 537 511 L 543 510 L 553 509 L 562 509 L 570 508 L 576 507 L 581 506 L 590 503 L 592 502 L 594 501 L 599 498 L 608 489 L 611 483 L 616 482 L 618 480 L 620 477 L 623 473 L 626 468 L 628 463 L 630 456 L 630 451 L 633 447 L 634 444 L 635 441 L 639 427 L 639 418 L 638 415 L 634 411 L 628 408 L 625 407 L 622 406 L 606 401 L 588 396 L 561 390 L 558 389 L 555 388 L 549 385 L 547 383 L 546 383 L 545 382 L 545 381 L 543 379 L 542 376 L 542 362 L 537 357 L 536 357 L 532 353 L 532 351 L 530 348 L 522 340 L 516 335 L 512 332 L 509 330 L 504 327 L 502 326 L 500 325 L 493 322 L 484 319 L 480 318 L 476 317 L 470 316 L 464 315 L 455 314 L 441 313 Z" fill="#47a138" fill-rule="evenodd"/>
</svg>


