<svg width="172" height="228" viewBox="0 0 172 228" fill="none" xmlns="http://www.w3.org/2000/svg">
<path d="M73.6516 215.654C72.9505 211.405 72.2629 207.154 71.5481 202.908C70.8229 198.6 69.3418 194.655 65.9896 191.828C65.0939 191.073 64.1652 190.368 63.2325 189.664C62.9046 189.417 62.5771 189.17 62.2531 188.917C62.2337 188.902 62.2214 188.893 62.2045 188.88C62.1689 188.849 62.1262 188.812 62.0687 188.764C60.6715 187.581 59.3215 186.346 58.0356 185.034C56.8936 183.868 55.8015 182.652 54.7593 181.386C54.4988 181.07 54.2418 180.752 53.988 180.43C53.9444 180.375 53.7093 180.071 53.5544 179.873C53.4104 179.674 53.1472 179.316 53.103 179.253C52.8065 178.834 52.5153 178.411 52.2295 177.984C50.2823 175.067 48.5963 171.983 47.1909 168.77C47.0515 168.451 46.9155 168.131 46.7827 167.808C46.7471 167.71 46.701 167.583 46.6398 167.415C46.3566 166.636 46.0739 165.858 45.815 165.07C45.2648 163.396 44.7918 161.698 44.396 159.975C44.2003 159.124 44.0241 158.269 43.8674 157.409C43.7867 156.967 43.7111 156.524 43.6408 156.08C43.6292 156.007 43.5605 155.528 43.5201 155.257C43.4902 154.985 43.4346 154.504 43.4271 154.429C43.3824 153.982 43.3426 153.534 43.3079 153.086C43.2298 152.077 43.1769 151.067 43.1494 150.055C43.1024 148.256 43.1346 146.457 43.246 144.659C43.3094 143.648 43.3997 142.641 43.5109 141.635C43.5177 141.573 43.5229 141.524 43.5277 141.479C43.5344 141.434 43.5423 141.383 43.5516 141.32C43.6339 140.764 43.7204 140.209 43.8173 139.655C44.184 137.554 44.6609 135.473 45.246 133.422C45.523 132.452 45.824 131.49 46.1488 130.535C46.2936 130.112 46.4429 129.69 46.5969 129.269C46.5868 129.296 47.0486 128.117 47.0547 128.077C48.8868 123.749 51.8834 119.802 51.8875 114.885C51.8903 111.556 49.0737 108.367 45.7742 108.521C44.1291 108.583 42.5722 109.281 41.4318 110.468C40.2914 111.655 39.6565 113.239 39.6608 114.885C39.6608 114.96 39.6604 115.024 39.6602 115.086C39.6294 115.189 39.6037 115.276 39.5806 115.352C39.2233 116.129 38.7856 116.866 38.3935 117.624C37.3196 119.696 36.403 121.836 35.5323 124.008C34.1069 127.544 33.0158 131.206 32.2734 134.946C30.6596 143.14 30.5344 151.558 31.9036 159.797C34.2739 174.245 42.0906 188.075 52.9576 197.371C53.9007 198.178 54.8668 198.957 55.8419 199.721C56.2455 200.037 56.6524 200.347 57.0613 200.656C57.2546 200.801 58.0554 201.433 57.7031 201.127C58.4606 201.773 58.7794 202.099 58.974 202.575C59.0022 202.685 59.0406 202.834 59.0927 203.037C59.2298 203.574 59.36 204.11 59.4682 204.655C60.4141 209.412 61.0716 214.249 61.8617 219.038C62.4048 222.328 66.4551 224.469 69.3819 223.483C72.7886 222.335 74.2335 219.179 73.6516 215.654Z" fill="#004D61"/>
<path d="M126.181 227.993C123.614 228 121.149 226.988 119.326 225.179C117.504 223.371 116.474 220.913 116.461 218.346V211.372C109.16 212.189 84.1583 212 76.9916 210.849V218.067C76.9724 220.632 75.9398 223.086 74.119 224.893C72.2982 226.7 69.8368 227.714 67.2713 227.714C64.7059 227.714 62.2445 226.7 60.4236 224.893C58.6028 223.086 57.5702 220.632 57.551 218.067V203.895C47.8444 198.502 39.7525 190.617 34.1106 181.054C28.4686 171.49 25.4809 160.594 25.4558 149.49C25.4558 130.451 34.0844 112.69 49.1293 100.761C58.9114 92.9792 70.7965 88.2991 83.2582 87.322C84.9497 87.1894 86.6514 87.1222 88.3165 87.1222C94.1824 87.1222 120.648 88.0284 127.288 89.9388L142.43 74.9145C142.652 74.6907 142.936 74.5382 143.246 74.4765C143.556 74.4147 143.877 74.4467 144.168 74.5681C144.462 74.6849 144.713 74.8878 144.889 75.1501C145.066 75.4124 145.158 75.7219 145.156 76.0379V78.4266L148.104 75.5067C148.326 75.2826 148.61 75.1299 148.92 75.0681C149.229 75.0062 149.55 75.0381 149.841 75.1597C150.135 75.2765 150.387 75.4794 150.563 75.7418C150.739 76.0042 150.832 76.3138 150.83 76.63V103.324C158.427 110.174 164.218 118.792 167.689 128.414C171.159 138.037 172.203 148.367 170.726 158.489C169.25 168.611 165.299 178.213 159.225 186.443C153.15 194.674 145.139 201.278 135.901 205.672V218.346C135.889 220.913 134.858 223.371 133.036 225.179C131.214 226.988 128.749 228 126.181 227.993ZM117.225 210.505V218.346C117.244 220.708 118.196 222.968 119.874 224.631C121.551 226.295 123.818 227.229 126.181 227.229C128.544 227.229 130.811 226.295 132.488 224.631C134.166 222.968 135.118 220.708 135.137 218.346V205.189L135.355 205.086C145.721 200.167 154.52 192.473 160.776 182.856C168.748 170.584 172.063 155.863 170.122 141.358C168.181 126.853 161.111 113.523 150.192 103.779L150.065 103.665V76.63C150.068 76.4657 150.021 76.3046 149.929 76.1682C149.837 76.0319 149.706 75.927 149.553 75.8675C149.401 75.8024 149.232 75.7848 149.07 75.8171C148.907 75.8494 148.759 75.93 148.643 76.0483L144.391 80.2591V76.0378C144.394 75.8736 144.346 75.7124 144.255 75.5761C144.163 75.4398 144.032 75.3348 143.879 75.2753C143.726 75.2104 143.558 75.193 143.395 75.2255C143.232 75.258 143.083 75.3388 142.967 75.4574L127.502 90.8034L127.282 90.7345C121.109 88.8024 94.2269 87.8864 88.3165 87.8864C86.6712 87.8864 84.9895 87.9528 83.3182 88.084C71.0079 89.0491 59.2672 93.6723 49.6042 101.36C34.7431 113.143 26.2199 130.685 26.2199 149.49C26.2453 160.496 29.2171 171.294 34.8264 180.762C40.4358 190.231 48.4781 198.025 58.118 203.335L58.3152 203.445V218.067C58.3349 220.429 59.2871 222.688 60.9646 224.352C62.6421 226.015 64.9088 226.949 67.2713 226.949C69.6338 226.949 71.9006 226.015 73.578 224.352C75.2555 222.688 76.2078 220.429 76.2275 218.067V209.934L76.6802 210.019C83.1205 211.231 110.239 211.422 116.793 210.562L117.225 210.505Z" fill="#3F3D56"/>
<path d="M74.382 45.5131L32.0698 58.2289C30.724 58.635 29.5944 59.5587 28.9292 60.7971C28.264 62.0354 28.1176 63.4872 28.5221 64.8335C28.9267 66.1798 29.8491 67.3104 31.0867 67.977C32.3244 68.6436 33.776 68.7916 35.1227 68.3886L72.1505 57.2584L72.9262 57.0253C73.0832 53.0282 74.1676 49.1223 76.0937 45.6163C75.852 45.5075 75.5936 45.4403 75.3295 45.4176C75.0105 45.3867 74.6885 45.4192 74.382 45.5131Z" fill="#E6E6E6"/>
<path d="M34.391 71.0996C33.8293 71.0982 33.2823 70.9203 32.8272 70.5912C32.3721 70.262 32.0319 69.7981 31.8548 69.2651L29.2089 61.281C29.0984 60.9476 29.0547 60.5957 29.0802 60.2454C29.1057 59.895 29.2 59.5532 29.3576 59.2393C29.5153 58.9254 29.7332 58.6456 29.999 58.416C30.2648 58.1863 30.5732 58.0113 30.9066 57.9008L65.3445 46.4879C65.6778 46.3774 66.0297 46.3336 66.38 46.3591C66.7303 46.3846 67.0722 46.4788 67.3861 46.6364C67.6999 46.794 67.9797 47.0119 68.2094 47.2776C68.4391 47.5433 68.6141 47.8517 68.7247 48.1851L71.3705 56.1691C71.5907 56.8258 71.5465 57.5424 71.2475 58.1671C70.9484 58.7918 70.4179 59.2756 69.7684 59.5159C69.7366 59.5279 69.7045 59.5391 69.672 59.5497L35.235 70.9623C34.9628 71.053 34.6779 71.0993 34.391 71.0996Z" fill="#2F2E41"/>
<path d="M98.8851 31.334C91.9346 31.3367 85.2578 34.0438 80.268 38.8824C75.2783 43.721 72.367 50.3113 72.1505 57.2585C72.1429 57.5298 72.1392 57.8049 72.1392 58.08C72.1392 63.3698 73.7078 68.5409 76.6467 72.9392C79.5855 77.3376 83.7627 80.7657 88.6499 82.79C93.5371 84.8144 98.9148 85.344 104.103 84.312C109.291 83.28 114.057 80.7327 117.797 76.9922C121.538 73.2517 124.085 68.4861 125.117 63.2978C126.149 58.1096 125.62 52.7319 123.595 47.8447C121.571 42.9575 118.143 38.7804 113.744 35.8415C109.346 32.9026 104.175 31.334 98.8851 31.334ZM98.8851 84.0618C91.9965 84.0546 85.3921 81.3149 80.5211 76.444C75.6502 71.573 72.9105 64.9686 72.9033 58.08C72.9033 57.7246 72.911 57.3731 72.9263 57.0254C73.1332 51.936 74.8315 47.0196 77.8102 42.8876C80.7888 38.7557 84.9164 35.5905 89.6795 33.7855C94.4426 31.9806 99.6313 31.6156 104.6 32.7359C109.569 33.8562 114.099 36.4124 117.627 40.0866C121.155 43.7608 123.525 48.391 124.442 53.4014C125.359 58.4117 124.784 63.5812 122.787 68.2671C120.79 72.9529 117.459 76.9483 113.21 79.7566C108.96 82.5648 103.979 84.0619 98.8851 84.0618Z" fill="#3F3D56"/>
<path d="M121.428 58.0798C121.428 64.0586 119.053 69.7925 114.825 74.0202C110.598 78.2478 104.864 80.6229 98.8851 80.6229C92.9063 80.6229 87.1724 78.2478 82.9447 74.0202C78.7171 69.7925 76.342 64.0586 76.342 58.0798C76.342 57.3653 76.3764 56.6623 76.4413 55.9669C76.9845 50.1967 79.7293 44.8575 84.1056 41.0578C88.4818 37.258 94.1534 35.2898 99.9427 35.5617C105.732 35.8336 111.194 38.3248 115.195 42.518C119.196 46.7112 121.428 52.2842 121.428 58.0798Z" fill="#E6E6E6"/>
<path d="M105.598 59.5777C105.052 58.8592 104.333 58.2902 103.508 57.9232C102.491 57.4946 101.441 57.1495 100.367 56.8916V50.7553C102.017 51.004 103.564 51.7095 104.834 52.7918L106.08 50.1363C105.363 49.4981 104.541 48.9899 103.65 48.6347C102.662 48.2347 101.625 47.9687 100.566 47.8438V44.7336H97.6815V47.8744C96.5676 47.9995 95.493 48.3603 94.5293 48.9328C93.6587 49.448 92.9258 50.1664 92.3933 51.0266C91.8851 51.866 91.6218 52.8308 91.6331 53.812C91.5834 54.8753 91.8915 55.9246 92.508 56.7923C93.0755 57.5435 93.825 58.1379 94.6858 58.5193C95.7192 58.9606 96.7877 59.3146 97.8802 59.5777V65.458C95.9334 65.3111 94.0785 64.571 92.5653 63.3374L91.3198 65.9967C92.1659 66.6962 93.128 67.2419 94.1625 67.6091C95.2961 68.0148 96.4803 68.2616 97.6815 68.3427V71.4261H100.566V68.2854C102.169 68.1103 103.671 67.4213 104.849 66.3215C105.368 65.8238 105.778 65.2239 106.053 64.5596C106.328 63.8953 106.462 63.1812 106.447 62.4624C106.494 61.433 106.196 60.4173 105.598 59.5777ZM97.8802 56.2421C97.1775 56.029 96.5242 55.6783 95.9582 55.2104C95.734 55.0109 95.5567 54.7642 95.4392 54.4881C95.3216 54.212 95.2666 53.9132 95.2782 53.6133C95.2573 52.9328 95.5074 52.2718 95.9735 51.7755C96.4903 51.2548 97.157 50.9088 97.8802 50.7859V56.2421ZM102.179 64.3728C101.691 64.8727 101.056 65.2035 100.367 65.3166V60.2578C101.026 60.4345 101.642 60.7425 102.179 61.1633C102.382 61.337 102.544 61.5543 102.651 61.7991C102.759 62.0438 102.811 62.3097 102.801 62.577C102.828 63.2328 102.605 63.8743 102.179 64.3728Z" fill="#004D61"/>
<path d="M35.619 103.458C35.0283 103.457 34.4545 103.261 33.9864 102.901C33.5184 102.54 33.1823 102.036 33.0303 101.465L31.5898 96.0126C31.4095 95.3273 31.5084 94.5985 31.8647 93.986C32.2211 93.3734 32.8058 92.9273 33.4907 92.7453L78.9362 80.7365C79.622 80.5576 80.3507 80.6575 80.963 81.0145C81.5753 81.3714 82.0213 81.9564 82.2034 82.6413L83.4237 87.2607L83.1951 87.2784C71.5398 88.1847 60.3879 92.4105 51.0589 99.4559L50.9926 99.488L36.2975 103.37C36.076 103.428 35.848 103.458 35.619 103.458Z" fill="#2F2E41"/>
<path d="M28.0924 130.39C22.7614 129.602 17.6628 127.674 13.1443 124.738C10.9058 123.284 8.83344 121.589 6.96451 119.683C5.11985 117.802 3.35514 115.663 2.44146 113.158C1.56237 110.839 1.60768 108.272 2.56802 105.986C3.51526 103.714 5.3247 101.911 7.59961 100.971C9.88815 100.059 12.6532 99.9609 14.8804 100.96C15.9418 101.426 16.8602 102.165 17.5414 103.102C17.858 103.535 18.0925 104.021 18.2331 104.538C18.3635 105.007 18.3754 105.5 18.2676 105.975C18.137 106.448 17.9067 106.888 17.5921 107.265C17.2775 107.642 16.8859 107.948 16.4436 108.161C15.4701 108.661 14.4153 108.982 13.3288 109.111C12.2359 109.26 10.6661 109.396 9.78759 108.519C9.60674 108.345 9.46451 108.135 9.37013 107.903C9.30409 107.725 9.2815 107.534 9.30426 107.346C9.29144 107.429 9.35726 107.166 9.35351 107.176C9.33962 107.215 9.27945 107.31 9.36497 107.164C9.39169 107.116 9.42145 107.07 9.45405 107.025C9.42501 107.063 9.36123 107.126 9.47512 107.018C9.56922 106.915 9.69021 106.84 9.82445 106.802C9.87733 106.787 9.93099 106.775 9.98402 106.76C10.1188 106.723 9.84967 106.762 9.98756 106.758C10.0408 106.756 10.0946 106.757 10.1477 106.755C10.2829 106.749 10.0142 106.718 10.1438 106.751C10.1942 106.763 10.244 106.776 10.2936 106.791C10.4014 106.825 10.2173 106.712 10.2903 106.797C10.3759 106.896 10.2005 106.701 10.2978 106.796C10.3462 106.844 10.3918 106.894 10.4344 106.947C10.6031 107.114 10.8306 107.207 11.0677 107.207C11.3048 107.207 11.5323 107.114 11.701 106.947C11.864 106.777 11.9549 106.55 11.9549 106.314C11.9549 106.078 11.864 105.851 11.701 105.681C10.8179 104.586 9.0734 104.856 8.18 105.782C7.04063 106.962 7.49182 108.832 8.60011 109.861C9.85477 111.027 11.6317 111.108 13.2456 110.913C14.6096 110.782 15.9388 110.406 17.1693 109.804C18.3921 109.203 19.3484 108.17 19.8531 106.904C20.081 106.229 20.1628 105.513 20.0933 104.804C20.0237 104.094 19.8042 103.408 19.4495 102.79C18.0246 100.111 15.074 98.7375 12.1576 98.4996C10.6561 98.382 9.14617 98.5633 7.7152 99.0331C6.28423 99.5029 4.96063 100.252 3.82098 101.236C1.62437 103.214 0.27174 105.96 0.0428238 108.907C-0.211744 111.962 0.973618 114.929 2.70184 117.395C4.5111 119.9 6.67012 122.133 9.11303 124.025C13.8889 127.838 19.4909 130.48 25.4709 131.74C26.1821 131.887 26.8973 132.012 27.6162 132.117C27.8449 132.172 28.0862 132.139 28.2909 132.022C28.4956 131.906 28.6483 131.716 28.7179 131.491C28.7793 131.262 28.7481 131.018 28.631 130.812C28.514 130.606 28.3205 130.454 28.0924 130.39L28.0924 130.39Z" fill="#3F3D56"/>
<path d="M113.445 91.4644C105.634 91.3541 97.848 91.5523 90.0866 92.059C87.4336 92.2322 85.1383 93.1699 85.1383 94.7459C85.1383 96.0635 87.4154 97.6071 90.0866 97.4327C97.844 96.9261 105.63 96.7279 113.445 96.838C119.815 96.928 119.812 91.5542 113.445 91.4644Z" fill="#CCCCCC"/>
<path d="M101.9 96.5718C101.056 96.5718 81.2273 96.5403 81.2273 93.8013C81.2273 91.0625 101.056 91.031 101.9 91.031C102.744 91.031 122.573 91.0625 122.573 93.8013C122.573 96.5403 102.744 96.5718 101.9 96.5718ZM82.0027 93.8013C82.5453 94.6317 89.834 95.8076 101.9 95.8076C113.967 95.8076 121.255 94.6317 121.798 93.8013C121.255 92.9711 113.967 91.7952 101.9 91.7952C89.834 91.7952 82.5453 92.9711 82.0027 93.8013V93.8013Z" fill="#3F3D56"/>
<path d="M42.0909 115.672C41.4543 115.67 40.8392 115.441 40.3558 115.027C39.8724 114.612 39.5523 114.039 39.4529 113.411L38.5799 107.839C38.4709 107.139 38.6443 106.423 39.0621 105.85C39.4798 105.277 40.1079 104.893 40.8083 104.783L87.2438 97.5069C87.9444 97.3979 88.6597 97.5713 89.2327 97.9891C89.8057 98.4068 90.1895 99.0348 90.3 99.7353L91.173 105.307C91.2821 106.008 91.1087 106.723 90.691 107.296C90.2732 107.869 89.6452 108.253 88.9447 108.363L42.5093 115.639C42.3709 115.661 42.231 115.672 42.0909 115.672Z" fill="#2F2E41"/>
<path d="M22.8737 50.3797C33.6357 50.3797 42.36 41.6554 42.36 30.8933C42.36 20.1313 33.6357 11.407 22.8737 11.407C12.1117 11.407 3.38733 20.1313 3.38733 30.8933C3.38733 41.6554 12.1117 50.3797 22.8737 50.3797Z" fill="#E6E6E6"/>
<path d="M33.9064 35.9354C34.5292 35.7175 35.0982 35.3689 35.575 34.9129C35.8904 34.5877 36.131 34.1975 36.2798 33.7697C36.4286 33.3418 36.4821 32.8865 36.4365 32.4358C36.41 32.1146 36.3095 31.8038 36.143 31.5278C35.9765 31.2518 35.7485 31.018 35.4766 30.8447C34.7714 30.4111 33.8396 30.4274 32.8987 30.8636L32.7901 23.2571L32.0261 23.268L32.1537 32.2102L32.7354 31.8287C33.4099 31.3871 34.379 31.0668 35.0763 31.4957C35.2487 31.6092 35.3926 31.761 35.4969 31.9393C35.6011 32.1175 35.6628 32.3174 35.6772 32.5233C35.7094 32.8591 35.6688 33.1979 35.5583 33.5166C35.4478 33.8353 35.2699 34.1264 35.0368 34.3702C34.2084 35.1921 32.9824 35.4675 31.583 35.7194L31.7184 36.4714C32.4623 36.3584 33.1946 36.179 33.9064 35.9354Z" fill="#2F2E41"/>
<path d="M40.6588 22.7231L36.5895 23.3394L36.7039 24.0948L40.7732 23.4786L40.6588 22.7231Z" fill="#2F2E41"/>
<path d="M27.8142 24.6679L23.7449 25.2842L23.8593 26.0396L27.9286 25.4234L27.8142 24.6679Z" fill="#2F2E41"/>
<path d="M35.751 115.331C35.0502 115.329 34.3665 115.115 33.7908 114.715C33.2151 114.315 32.7748 113.75 32.5283 113.094L19.093 77.1133C17.4509 72.7005 17.6262 67.8165 19.5806 63.5328C21.535 59.2492 25.1088 55.9157 29.5179 54.2637L40.4424 50.1845C40.8648 50.0257 41.3145 49.952 41.7655 49.9676C42.2165 49.9833 42.66 50.088 43.0704 50.2757C43.4798 50.4586 43.8486 50.7213 44.1554 51.0484C44.4621 51.3755 44.7005 51.7604 44.8568 52.1807L69.7445 99.1711C69.9061 99.5948 69.9823 100.046 69.9687 100.5C69.9551 100.953 69.852 101.399 69.6653 101.812C69.4787 102.226 69.2121 102.598 68.881 102.908C68.5499 103.218 68.1608 103.459 67.736 103.618L36.9528 115.113C36.5685 115.257 36.1615 115.331 35.751 115.331Z" fill="#2F2E41"/>
<path d="M37.1281 51.4221L61.8219 84.4441L45.1126 51.7687C44.9746 51.3874 44.7629 51.0371 44.4895 50.7377C44.216 50.4383 43.8863 50.1957 43.5191 50.0237C43.1519 49.8518 42.7544 49.7539 42.3494 49.7356C41.9443 49.7173 41.5397 49.779 41.1584 49.9171L37.1281 51.4221Z" fill="#E6E6E6"/>
<path d="M76.2275 76.5001L32.1367 73.66C31.4417 73.6152 30.7624 73.434 30.1374 73.1267C29.5125 72.8194 28.9542 72.392 28.4944 71.8689C28.0346 71.3459 27.6824 70.7373 27.4578 70.0781C27.2332 69.4189 27.1406 68.7219 27.1854 68.027C27.2302 67.332 27.4114 66.6526 27.7187 66.0277C28.026 65.4027 28.4534 64.8444 28.9765 64.3847C29.4995 63.9249 30.1081 63.5727 30.7673 63.3481C31.4265 63.1235 32.1235 63.0309 32.8184 63.0757L76.9093 65.9155C77.2348 65.9365 77.5529 66.0213 77.8456 66.1652C78.1383 66.3091 78.3998 66.5093 78.6151 66.7542C78.8304 66.9992 78.9954 67.2842 79.1006 67.5929C79.2057 67.9016 79.2491 68.228 79.2281 68.5535L78.8657 74.1813C78.8233 74.8386 78.5216 75.4522 78.0268 75.887C77.5321 76.3219 76.8849 76.5424 76.2275 76.5001Z" fill="#E6E6E6"/>
<path d="M64.4458 78.321C64.3876 78.321 64.3293 78.3191 64.2707 78.3154L28.0657 75.9833C27.7152 75.9608 27.3726 75.8694 27.0574 75.7144C26.7422 75.5595 26.4606 75.3439 26.2287 75.0801C25.9968 74.8163 25.8191 74.5094 25.7059 74.177C25.5926 73.8445 25.5459 73.493 25.5685 73.1425L26.1876 63.5299C26.2102 63.1794 26.3016 62.8367 26.4566 62.5215C26.6116 62.2064 26.8272 61.9248 27.091 61.6929C27.3549 61.4611 27.6618 61.2834 27.9943 61.1702C28.3268 61.0569 28.6783 61.0103 29.0288 61.0329L65.2337 63.3648C65.9413 63.4111 66.6015 63.7363 67.0697 64.2688C67.5378 64.8014 67.7756 65.4979 67.7308 66.2056L67.1118 75.8184C67.0776 76.3334 66.8956 76.8277 66.5875 77.2419C66.2794 77.656 65.8583 77.9725 65.3747 78.1532C65.0777 78.2643 64.763 78.3212 64.4458 78.321Z" fill="#2F2E41"/>
<path d="M22.6503 17.9353C25.2138 15.7305 28.7341 17.7028 31.6739 17.3576C34.4865 17.0272 36.7074 14.5043 37.2747 11.8241C37.9366 8.69707 36.3136 5.56428 33.9213 3.61466C31.3011 1.47934 27.8262 0.866346 24.5333 1.2614C20.7592 1.71417 17.3076 3.47342 14.2105 5.60133C11.221 7.59165 8.47188 9.92121 6.01794 12.5435C3.82052 14.9704 1.95875 17.8632 1.36423 21.1289C0.823963 24.0967 1.2365 27.3855 2.99096 29.8997C3.92131 31.1883 5.16805 32.2155 6.61091 32.882C8.11535 33.6207 9.72015 34.1488 11.1777 34.9841C13.3814 36.247 15.5233 38.8657 14.833 41.5907C14.685 42.186 14.3929 42.7358 13.9825 43.1917C13.4893 43.7391 12.5998 43.0157 13.0942 42.4668C13.9627 41.5028 13.9285 40.2171 13.4657 39.0662C12.9153 37.7692 11.9409 36.6976 10.7019 36.027C9.17619 35.1547 7.49178 34.6163 5.92808 33.8217C4.43137 33.0959 3.13217 32.0192 2.14107 30.6833C0.269527 28.0825 -0.29029 24.6976 0.134161 21.5664C0.593481 18.1779 2.33447 15.0987 4.51693 12.5184C6.89205 9.71031 9.80954 7.33332 12.79 5.19792C15.9881 2.90661 19.5214 0.969462 23.4311 0.268828C26.8203 -0.338513 30.4939 0.0354044 33.4576 1.88235C36.224 3.60635 38.3453 6.57198 38.5563 9.88578C38.632 11.3935 38.3046 12.8943 37.6078 14.2335C36.911 15.5727 35.8699 16.7021 34.5917 17.5054C33.2801 18.2902 31.7552 18.6435 30.2321 18.5153C28.6038 18.4111 26.9739 17.9125 25.3352 18.0509C24.5937 18.0959 23.8871 18.3814 23.3224 18.8642C22.7623 19.3459 22.0948 18.4131 22.6503 17.9353V17.9353Z" fill="#2F2E41"/>
</svg>
